# xmcd CD database file
#
# Track frame offsets:
#	150
#	13987
#	27030
#	65413
#	82565
#	112629
#	129639
#	154799
#	170024
#	180264
#	190966
#	221851
#	235609
#	258845
#
# Disc length: 3784 seconds
#
# Revision: 0
# Processed by: cddbd v1.5.2PL0 Copyright (c) Steve Scherf et al.
# Submitted via: CDex 1.70beta2
#
DISCID=a90ec60e
DTITLE=Various Artist - Day Driving
DYEAR=2006
DGENRE=Jazz
TTITLE0=01chris connor/BE A CLOWN
TTITLE1=02Betty Bennett/YOU'RE DRIVING ME CRAZY
TTITLE2=03Les McCann&Eddie Harris/SHORTY RIDES AGAIN
TTITLE3=04Roland Kirk/WHAT'S GOING ON-MERCY MERCY ME
TTITLE4=05Brother Jack McDuff&David Newman/SUNNY
TTITLE5=06The Charles Lioyd Quartet/HERE THERE AND EVERYWHERE
TTITLE6=07Lee Konitz&Warne Marsh/TWO NOT ONE
TTITLE7=08Herbie Mann,Joao Gilberto&Antonio Carlos jobim/ONE NOTE SAMBA 
TTITLE8=09Mose Allison/WILD MAN ON THE LOOSE
TTITLE9=10Bobby Darin/I'LL REMEMBER APRIL
TTITLE10=11John Coltrane/THE NIGHT HAS A THOUSAND EYES
TTITLE11=12Nat Adderley/JIVE SAMBA
TTITLE12=13Hank Crawford/FOUR FIVE SIX
TTITLE13=14Keith Jarrett/MY BACK PAGES
EXTD=YEAR: 2006
EXTT0=
EXTT1=
EXTT2=
EXTT3=
EXTT4=
EXTT5=
EXTT6=
EXTT7=
EXTT8=
EXTT9=
EXTT10=
EXTT11=
EXTT12=
EXTT13=
PLAYORDER=
